<svg width="860" height="480" viewBox="0 0 860 480" xmlns="http://www.w3.org/2000/svg">
<defs>

<!-- ░ SKY GRADIENTS — night/dusk/dawn cycle ░ -->
<linearGradient id="sky-night" x1="0" y1="0" x2="0" y2="1">
  <stop offset="0%"  stop-color="#06041a"/>
  <stop offset="60%" stop-color="#0e0930"/>
  <stop offset="100%" stop-color="#1a1040"/>
</linearGradient>
<linearGradient id="sky-dusk" x1="0" y1="0" x2="1" y2="1">
  <stop offset="0%"  stop-color="#1a0830"/>
  <stop offset="40%" stop-color="#4a1a10"/>
  <stop offset="70%" stop-color="#cc4400"/>
  <stop offset="100%" stop-color="#ff8800"/>
</linearGradient>
<linearGradient id="sky-dawn" x1="0" y1="0" x2="1" y2="1">
  <stop offset="0%"  stop-color="#0a0620"/>
  <stop offset="50%" stop-color="#2a1a5a"/>
  <stop offset="100%" stop-color="#cc6622"/>
</linearGradient>

<!-- ░ ROAD ░ -->
<linearGradient id="road" x1="0" y1="0" x2="0" y2="1">
  <stop offset="0%"  stop-color="#111128"/>
  <stop offset="100%" stop-color="#1c1a38"/>
</linearGradient>

<!-- ░ HEADLIGHT / FIRE ░ -->
<radialGradient id="fire-glow" cx="50%" cy="50%" r="50%">
  <stop offset="0%"  stop-color="#ff6600" stop-opacity="0.9"/>
  <stop offset="60%" stop-color="#ff3300" stop-opacity="0.4"/>
  <stop offset="100%" stop-color="#ff0000" stop-opacity="0"/>
</radialGradient>
<radialGradient id="sun-glow" cx="50%" cy="50%" r="50%">
  <stop offset="0%"  stop-color="#ffcc44" stop-opacity="1"/>
  <stop offset="40%" stop-color="#ff8800" stop-opacity="0.7"/>
  <stop offset="100%" stop-color="#ff4400" stop-opacity="0"/>
</radialGradient>
<radialGradient id="moon-glow" cx="50%" cy="50%" r="50%">
  <stop offset="0%"  stop-color="#ffe8b0" stop-opacity="0.8"/>
  <stop offset="100%" stop-color="#cc9933" stop-opacity="0"/>
</radialGradient>

<!-- ░ PANEL BACKGROUNDS ░ -->
<linearGradient id="panel-bg" x1="0" y1="0" x2="0" y2="1">
  <stop offset="0%"  stop-color="#0e0c2a" stop-opacity="0.92"/>
  <stop offset="100%" stop-color="#08061a" stop-opacity="0.92"/>
</linearGradient>
<linearGradient id="bar-amber" x1="0" y1="0" x2="1" y2="0">
  <stop offset="0%"  stop-color="#cc7700"/>
  <stop offset="100%" stop-color="#ffaa00"/>
</linearGradient>
<linearGradient id="bar-red" x1="0" y1="0" x2="1" y2="0">
  <stop offset="0%"  stop-color="#cc1100"/>
  <stop offset="100%" stop-color="#ff4400"/>
</linearGradient>
<linearGradient id="bar-purple" x1="0" y1="0" x2="1" y2="0">
  <stop offset="0%"  stop-color="#5a2a9a"/>
  <stop offset="100%" stop-color="#8a4acc"/>
</linearGradient>

<!-- ░ SMOKE ░ -->
<filter id="smokeblur"><feGaussianBlur stdDeviation="5"/></filter>
<filter id="softblur"><feGaussianBlur stdDeviation="3"/></filter>
<filter id="iconblur" x="-30%" y="-30%" width="160%" height="160%">
  <feGaussianBlur stdDeviation="2" result="b"/>
  <feMerge><feMergeNode in="b"/><feMergeNode in="SourceGraphic"/></feMerge>
</filter>
<filter id="textglow" x="-20%" y="-40%" width="140%" height="180%">
  <feGaussianBlur stdDeviation="4" result="b"/>
  <feMerge><feMergeNode in="b"/><feMergeNode in="b"/><feMergeNode in="SourceGraphic"/></feMerge>
</filter>
<filter id="bigglow" x="-40%" y="-60%" width="180%" height="220%">
  <feGaussianBlur stdDeviation="10" result="b"/>
  <feMerge><feMergeNode in="b"/><feMergeNode in="SourceGraphic"/></feMerge>
</filter>
<filter id="redshadow" x="-10%" y="-10%" width="120%" height="120%">
  <feDropShadow dx="2" dy="2" stdDeviation="3" flood-color="#cc0000" flood-opacity="0.8"/>
</filter>

<clipPath id="frame"><rect width="860" height="480"/></clipPath>
<clipPath id="road-clip"><rect x="0" y="295" width="860" height="185"/></clipPath>

</defs>

<g clip-path="url(#frame)">

<!-- ═══════════════════════════════════════ -->
<!--  BG: NIGHT SKY (always present)        -->
<!-- ═══════════════════════════════════════ -->
<rect width="860" height="480" fill="url(#sky-night)"/>

<!-- DUSK overlay (orange sunset, right side) -->
<rect x="400" y="0" width="460" height="320" fill="url(#sky-dusk)" opacity="0">
  <animate attributeName="opacity" values="0;0;0;0.85;0.85;0.85;0;0;0;0" dur="18s" repeatCount="indefinite"/>
</rect>
<!-- DAWN overlay -->
<rect x="500" y="100" width="360" height="220" fill="url(#sky-dawn)" opacity="0">
  <animate attributeName="opacity" values="0;0;0;0;0;0;0.6;0.6;0;0" dur="18s" repeatCount="indefinite"/>
</rect>

<!-- ═══════════════════════════════════════ -->
<!--  STARS                                  -->
<!-- ═══════════════════════════════════════ -->
<g fill="#fff">
  <circle cx="30" cy="18" r="1"/><circle cx="75" cy="9" r="1.2"/>
  <circle cx="120" cy="30" r="0.8"/><circle cx="168" cy="14" r="1"/>
  <circle cx="210" cy="35" r="0.7"/><circle cx="258" cy="8" r="1.1"/>
  <circle cx="305" cy="22" r="0.9"/><circle cx="350" cy="12" r="0.8"/>
  <circle cx="398" cy="40" r="1"/><circle cx="448" cy="18" r="1.2"/>
  <circle cx="490" cy="28" r="0.7"/><circle cx="536" cy="10" r="1"/>
  <circle cx="584" cy="35" r="0.9"/><circle cx="630" cy="16" r="1.1"/>
  <circle cx="678" cy="42" r="0.8"/><circle cx="724" cy="20" r="1"/>
  <circle cx="770" cy="32" r="0.9"/><circle cx="820" cy="12" r="1.2"/>
  <circle cx="848" cy="28" r="0.7"/>
</g>
<!-- Gold twinkling -->
<g fill="#ffe8a0">
  <circle cx="55" cy="20" r="1.3">
    <animate attributeName="opacity" values="1;0.1;1" dur="2.2s" repeatCount="indefinite"/>
    <animate attributeName="r" values="1.3;0.5;1.3" dur="2.2s" repeatCount="indefinite"/>
  </circle>
  <circle cx="195" cy="25" r="1.1">
    <animate attributeName="opacity" values="1;0.1;1" dur="3.6s" repeatCount="indefinite"/>
  </circle>
  <circle cx="445" cy="14" r="1.2">
    <animate attributeName="opacity" values="0.9;0.1;0.9" dur="2.0s" repeatCount="indefinite"/>
    <animate attributeName="r" values="1.2;0.4;1.2" dur="2.0s" repeatCount="indefinite"/>
  </circle>
  <circle cx="712" cy="18" r="1.0">
    <animate attributeName="opacity" values="1;0.15;1" dur="4.1s" repeatCount="indefinite"/>
  </circle>
  <circle cx="838" cy="22" r="1.1">
    <animate attributeName="opacity" values="0.8;0.1;0.8" dur="1.9s" repeatCount="indefinite"/>
    <animate attributeName="r" values="1.1;0.4;1.1" dur="1.9s" repeatCount="indefinite"/>
  </circle>
</g>
<!-- 4-point sparkles -->
<g>
  <g transform="translate(88,16)">
    <polygon points="0,-7 1.4,-1.4 7,0 1.4,1.4 0,7 -1.4,1.4 -7,0 -1.4,-1.4" fill="#ffe8a0">
      <animate attributeName="opacity" values="0.9;0;0.9" dur="3.2s" repeatCount="indefinite"/>
      <animateTransform attributeName="transform" type="rotate" values="0;45;0" dur="3.2s" repeatCount="indefinite"/>
    </polygon>
  </g>
  <g transform="translate(380,22)">
    <polygon points="0,-6 1.2,-1.2 6,0 1.2,1.2 0,6 -1.2,1.2 -6,0 -1.2,-1.2" fill="#ffe8a0">
      <animate attributeName="opacity" values="0.8;0;0.8" dur="2.7s" repeatCount="indefinite" begin="1s"/>
      <animateTransform attributeName="transform" type="rotate" values="45;-45;45" dur="2.7s" repeatCount="indefinite"/>
    </polygon>
  </g>
  <g transform="translate(760,16)">
    <polygon points="0,-7 1.4,-1.4 7,0 1.4,1.4 0,7 -1.4,1.4 -7,0 -1.4,-1.4" fill="#e8d090">
      <animate attributeName="opacity" values="0.85;0;0.85" dur="3.8s" repeatCount="indefinite" begin="1.5s"/>
      <animateTransform attributeName="transform" type="rotate" values="0;-45;0" dur="3.8s" repeatCount="indefinite"/>
    </polygon>
  </g>
</g>

<!-- Stars fade during day -->
<rect width="860" height="200" fill="#cc6600" opacity="0">
  <animate attributeName="opacity" values="0;0;0;0.18;0.18;0.18;0.10;0;0;0" dur="18s" repeatCount="indefinite"/>
</rect>

<!-- ═══════════════════════════════════════ -->
<!--  MOON (night phase)                     -->
<!-- ═══════════════════════════════════════ -->
<g>
  <animate attributeName="opacity" values="1;1;0.5;0;0;0;0;0.3;1;1" dur="18s" repeatCount="indefinite"/>
  <circle cx="110" cy="60" r="40" fill="url(#moon-glow)"/>
  <circle cx="110" cy="60" r="26" fill="#ede0c0"/>
  <circle cx="100" cy="52" r="20" fill="#0e0930" opacity="0.9"/>
  <circle cx="116" cy="48" r="3" fill="#d4c89a" opacity="0.4"/>
  <circle cx="108" cy="64" r="2" fill="#d4c89a" opacity="0.3"/>
</g>

<!-- ═══════════════════════════════════════ -->
<!--  SUN (dusk/dawn phase)                  -->
<!-- ═══════════════════════════════════════ -->
<g opacity="0">
  <animate attributeName="opacity" values="0;0;0;1;1;1;0.6;0;0;0" dur="18s" repeatCount="indefinite"/>
  <circle cx="720" cy="200" r="70" fill="url(#sun-glow)"/>
  <circle cx="720" cy="200" r="36" fill="#ffee88" opacity="0.95"/>
  <circle cx="720" cy="200" r="28" fill="#ffffff" opacity="0.7"/>
</g>

<!-- ═══════════════════════════════════════ -->
<!--  PIXEL FOREST + MOUNTAINS               -->
<!-- ═══════════════════════════════════════ -->
<!-- Far mountains -->
<polygon points="0,190 60,130 130,178 200,115 290,168 380,125 470,170 540,118 620,165 700,128 780,168 860,130 860,210 0,210" fill="#14103a" opacity="0.9"/>
<!-- Near mountains -->
<polygon points="0,215 50,168 120,205 195,152 280,198 365,158 450,200 530,162 615,200 700,158 780,200 860,165 860,225 0,225" fill="#0c0a20"/>

<!-- Pixel pine trees (left) -->
<g fill="#0a0818">
  <!-- tree 1 -->
  <polygon points="42,225 58,180 74,225"/>
  <polygon points="45,210 58,170 71,210"/>
  <rect x="54" y="225" width="8" height="15" rx="1"/>
  <!-- tree 2 -->
  <polygon points="15,225 28,188 41,225"/>
  <polygon points="18,212 28,178 38,212"/>
  <rect x="24" y="225" width="8" height="15" rx="1"/>
  <!-- tree 3 -->
  <polygon points="68,225 82,192 96,225"/>
  <polygon points="71,214 82,184 93,214"/>
  <rect x="78" y="225" width="8" height="12" rx="1"/>
</g>
<!-- Right side trees (dark, dusk silhouette) -->
<g fill="#0a0818">
  <polygon points="780,225 796,172 812,225"/>
  <polygon points="784,208 796,162 808,208"/>
  <rect x="792" y="225" width="8" height="18" rx="1"/>
  <polygon points="810,225 824,180 838,225"/>
  <polygon points="813,210 824,170 835,210"/>
  <rect x="820" y="225" width="8" height="15" rx="1"/>
  <polygon points="836,225 848,190 860,225"/>
  <rect x="845" y="225" width="8" height="12" rx="1"/>
</g>
<!-- Trees lighten in dusk -->
<g opacity="0">
  <animate attributeName="opacity" values="0;0;0;0.5;0.5;0.5;0.3;0;0;0" dur="18s" repeatCount="indefinite"/>
  <polygon points="780,225 796,172 812,225" fill="#1a1028"/>
  <polygon points="836,225 848,190 860,225" fill="#1a1028"/>
</g>

<!-- ═══════════════════════════════════════ -->
<!--  ROAD SURFACE + TOUGE CURVE             -->
<!-- ═══════════════════════════════════════ -->
<!-- Road base -->
<polygon points="0,275 860,275 860,480 0,480" fill="url(#road)"/>
<!-- Road horizon glow -->
<line x1="0" y1="275" x2="860" y2="275" stroke="#4a2a8a" stroke-width="2" opacity="0.9"/>
<!-- Road curve markings -->
<path d="M 200,480 Q 350,310 600,280" fill="none" stroke="#2a1a50" stroke-width="2.5" stroke-dasharray="20 15" opacity="0.5"/>
<path d="M 0,480 Q 250,330 650,278" fill="none" stroke="#2a1a50" stroke-width="2.5" stroke-dasharray="20 15" opacity="0.4"/>
<!-- Road edge lines -->
<line x1="0" y1="360" x2="860" y2="360" stroke="#1e1440" stroke-width="1" opacity="0.3"/>
<!-- Road guardrail posts (Initial D style) -->
<g fill="#cc2222" stroke="#880000" stroke-width="1">
  <rect x="320" y="265" width="14" height="22" rx="1"/>
  <rect x="370" y="263" width="14" height="24" rx="1"/>
  <rect x="420" y="262" width="14" height="25" rx="1"/>
  <rect x="470" y="263" width="14" height="24" rx="1"/>
  <rect x="520" y="265" width="14" height="22" rx="1"/>
</g>
<!-- Guardrail white crosses -->
<g fill="#ffffff" opacity="0.8">
  <line x1="322" y1="267" x2="332" y2="285" stroke="#fff" stroke-width="1.5"/>
  <line x1="332" y1="267" x2="322" y2="285" stroke="#fff" stroke-width="1.5"/>
  <line x1="372" y1="265" x2="382" y2="285" stroke="#fff" stroke-width="1.5"/>
  <line x1="382" y1="265" x2="372" y2="285" stroke="#fff" stroke-width="1.5"/>
  <line x1="422" y1="264" x2="432" y2="286" stroke="#fff" stroke-width="1.5"/>
  <line x1="432" y1="264" x2="422" y2="286" stroke="#fff" stroke-width="1.5"/>
  <line x1="472" y1="265" x2="482" y2="285" stroke="#fff" stroke-width="1.5"/>
  <line x1="482" y1="265" x2="472" y2="285" stroke="#fff" stroke-width="1.5"/>
  <line x1="522" y1="267" x2="532" y2="285" stroke="#fff" stroke-width="1.5"/>
  <line x1="532" y1="267" x2="522" y2="285" stroke="#fff" stroke-width="1.5"/>
</g>

<!-- Road lights dusk color shift -->
<rect x="0" y="275" width="860" height="205" fill="#331100" opacity="0">
  <animate attributeName="opacity" values="0;0;0;0.15;0.15;0.15;0.08;0;0;0" dur="18s" repeatCount="indefinite"/>
</rect>

<!-- ═══════════════════════════════════════ -->
<!--  CITY LIGHTS (right background)         -->
<!-- ═══════════════════════════════════════ -->
<!-- Tiny city dots in far background -->
<g fill="#cc9933" opacity="0.6">
  <rect x="640" y="248" width="3" height="2"/><rect x="652" y="244" width="2" height="3"/>
  <rect x="662" y="250" width="3" height="2"/><rect x="674" y="242" width="2" height="4"/>
  <rect x="685" y="248" width="3" height="3"/><rect x="696" y="244" width="2" height="3"/>
  <rect x="706" y="252" width="3" height="2"/><rect x="718" y="246" width="2" height="3"/>
  <rect x="728" y="250" width="3" height="3"/><rect x="740" y="244" width="2" height="2"/>
  <rect x="750" y="248" width="3" height="2"/><rect x="762" y="242" width="2" height="3"/>
</g>
<g fill="#9a6aaa" opacity="0.5">
  <rect x="648" y="250" width="2" height="2">
    <animate attributeName="opacity" values="0.5;0.1;0.5" dur="2.1s" repeatCount="indefinite"/>
  </rect>
  <rect x="668" y="246" width="2" height="2">
    <animate attributeName="opacity" values="0.4;0.1;0.4" dur="3.3s" repeatCount="indefinite"/>
  </rect>
  <rect x="702" y="250" width="2" height="2">
    <animate attributeName="opacity" values="0.5;0.1;0.5" dur="1.7s" repeatCount="indefinite"/>
  </rect>
</g>

<!-- ═══════════════════════════════════════ -->
<!--  DRIFT SMOKE                            -->
<!-- ═══════════════════════════════════════ -->
<g filter="url(#smokeblur)">
  <ellipse cx="285" cy="340" rx="20" ry="12" fill="#d0c0e8" opacity="0.35">
    <animate attributeName="rx" values="20;30;20" dur="1.4s" repeatCount="indefinite"/>
    <animate attributeName="ry" values="12;16;12" dur="1.4s" repeatCount="indefinite"/>
    <animate attributeName="opacity" values="0.35;0.18;0.35" dur="1.4s" repeatCount="indefinite"/>
    <animate attributeName="cy" values="340;330;340" dur="1.4s" repeatCount="indefinite"/>
  </ellipse>
  <ellipse cx="340" cy="345" rx="34" ry="18" fill="#c0b0d8" opacity="0.26">
    <animate attributeName="rx" values="34;48;34" dur="1.8s" repeatCount="indefinite"/>
    <animate attributeName="opacity" values="0.26;0.12;0.26" dur="1.8s" repeatCount="indefinite"/>
    <animate attributeName="cy" values="345;334;345" dur="1.8s" repeatCount="indefinite"/>
  </ellipse>
  <ellipse cx="410" cy="348" rx="50" ry="22" fill="#b0a0c8" opacity="0.18">
    <animate attributeName="rx" values="50;68;50" dur="2.3s" repeatCount="indefinite"/>
    <animate attributeName="opacity" values="0.18;0.07;0.18" dur="2.3s" repeatCount="indefinite"/>
    <animate attributeName="cy" values="348;335;348" dur="2.3s" repeatCount="indefinite"/>
  </ellipse>
  <ellipse cx="500" cy="350" rx="68" ry="25" fill="#a090b8" opacity="0.11">
    <animate attributeName="rx" values="68;88;68" dur="2.9s" repeatCount="indefinite"/>
    <animate attributeName="opacity" values="0.11;0.04;0.11" dur="2.9s" repeatCount="indefinite"/>
  </ellipse>
  <ellipse cx="600" cy="352" rx="85" ry="26" fill="#9080a8" opacity="0.06">
    <animate attributeName="rx" values="85;108;85" dur="3.5s" repeatCount="indefinite"/>
  </ellipse>
</g>

<!-- ═══════════════════════════════════════ -->
<!--  FIRE / EXHAUST BACKFIRE                -->
<!-- ═══════════════════════════════════════ -->
<g>
  <!-- Exhaust pipe position: right rear of car ~x=272,y=360 -->
  <circle cx="272" cy="362" r="14" fill="url(#fire-glow)" opacity="0">
    <animate attributeName="opacity" values="0;0;0;0;0;0.9;0.4;0;0;0;0;0;0;0.8;0.3;0;0;0;0" dur="4s" repeatCount="indefinite"/>
    <animate attributeName="r" values="8;8;8;8;8;14;8;8;8;8;8;8;8;12;8;8;8;8" dur="4s" repeatCount="indefinite"/>
  </circle>
  <circle cx="272" cy="362" r="6" fill="#ffaa00" opacity="0">
    <animate attributeName="opacity" values="0;0;0;0;0;0.95;0.5;0;0;0;0;0;0;0.9;0.4;0;0;0" dur="4s" repeatCount="indefinite"/>
  </circle>
</g>

<!-- Ground heat shimmer glow -->
<ellipse cx="240" cy="368" rx="90" ry="10" fill="#cc6600" opacity="0.2">
  <animate attributeName="opacity" values="0.2;0.08;0.2" dur="2.0s" repeatCount="indefinite"/>
</ellipse>

<!-- ═══════════════════════════════════════ -->
<!--  AE86 TRUENO — PIXEL ART REAR 3/4 VIEW -->
<!-- ═══════════════════════════════════════ -->
<!-- Car body shadow -->
<ellipse cx="235" cy="372" rx="130" ry="10" fill="#050312" opacity="0.7"/>

<g transform="translate(95,280) rotate(4)">

  <!-- MAIN BODY — white/silver pixel art -->
  <!-- Trunk / rear panel -->
  <rect x="30"  y="50" width="200" height="52" rx="5" fill="#d8d8e8"/>
  <!-- Body lower dark panel -->
  <rect x="30"  y="88" width="200" height="16" rx="3" fill="#a0a0b8"/>
  <!-- Body highlight top -->
  <rect x="30"  y="50" width="200" height="6"  rx="3" fill="#eeeefc" opacity="0.8"/>

  <!-- REAR WINDOW (wide, hatchback style) -->
  <rect x="60"  y="18" width="140" height="34" rx="4" fill="#0e1828" opacity="0.92"/>
  <!-- Window tint bands -->
  <rect x="62"  y="20" width="136" height="8"  rx="2" fill="#1a2a3a" opacity="0.7"/>
  <rect x="62"  y="29" width="80"  height="5"  rx="1" fill="#1a2a3a" opacity="0.4"/>
  <!-- Window reflections -->
  <rect x="62"  y="20" width="30"  height="3"  rx="1" fill="#ffffff" opacity="0.15"/>

  <!-- ROOF -->
  <rect x="58"  y="4"  width="144" height="20" rx="6" fill="#c8c8d8"/>
  <rect x="60"  y="4"  width="140" height="6"  rx="3" fill="#eeeef8" opacity="0.6"/>

  <!-- C-PILLAR left -->
  <rect x="58"  y="14" width="16"  height="38" rx="2" fill="#b0b0c8"/>
  <!-- C-PILLAR right -->
  <rect x="186" y="14" width="16"  height="38" rx="2" fill="#b0b0c8"/>

  <!-- TRUNK LID -->
  <rect x="34"  y="52" width="192" height="20" rx="3" fill="#d0d0e0"/>
  <rect x="34"  y="52" width="192" height="4"  rx="2" fill="#e8e8f4" opacity="0.7"/>

  <!-- TOYOTA licence plate area -->
  <rect x="88"  y="92" width="84"  height="16" rx="2" fill="#e8e8f0"/>
  <rect x="89"  y="93" width="82"  height="14" rx="1" fill="#dcdcec"/>
  <!-- Plate text -->
  <text x="130" y="104" font-family="monospace" font-size="7" fill="#1a1830" text-anchor="middle" font-weight="bold">栃麻 55 ★ 13-954</text>

  <!-- Tofu shop kanji sticker -->
  <rect x="188" y="72" width="36"  height="18" rx="2" fill="#1a1830" opacity="0.8"/>
  <text x="206" y="84" font-family="serif" font-size="7" fill="#cc9933" text-anchor="middle">藤原とうふ店</text>

  <!-- TRUENO text -->
  <text x="174" y="50" font-family="monospace" font-size="6" fill="#1a1830" text-anchor="end" opacity="0.7">TRUENO</text>

  <!-- LEFT TAIL LIGHT cluster -->
  <rect x="30"  y="52" width="28"  height="36" rx="2" fill="#cc2244"/>
  <!-- Inner segments -->
  <rect x="31"  y="53" width="12"  height="16" rx="1" fill="#ff3355" opacity="0.8">
    <animate attributeName="opacity" values="0.8;0.3;0.8" dur="0.7s" repeatCount="indefinite"/>
  </rect>
  <rect x="31"  y="72" width="12"  height="14" rx="1" fill="#cc1133" opacity="0.9"/>
  <rect x="45"  y="53" width="12"  height="34" rx="1" fill="#ff4466" opacity="0.6">
    <animate attributeName="opacity" values="0.6;0.2;0.6" dur="1.1s" repeatCount="indefinite"/>
  </rect>
  <!-- Tail light glow -->
  <rect x="28"  y="50" width="32"  height="40" rx="3" fill="#ff0033" opacity="0.12" filter="url(#softblur)"/>

  <!-- RIGHT TAIL LIGHT cluster -->
  <rect x="202" y="52" width="28"  height="36" rx="2" fill="#cc2244"/>
  <rect x="203" y="53" width="12"  height="16" rx="1" fill="#ff3355" opacity="0.8">
    <animate attributeName="opacity" values="0.8;0.3;0.8" dur="0.8s" repeatCount="indefinite" begin="0.3s"/>
  </rect>
  <rect x="203" y="72" width="12"  height="14" rx="1" fill="#cc1133" opacity="0.9"/>
  <rect x="217" y="53" width="12"  height="34" rx="1" fill="#ff4466" opacity="0.6">
    <animate attributeName="opacity" values="0.6;0.2;0.6" dur="0.9s" repeatCount="indefinite"/>
  </rect>
  <rect x="200" y="50" width="32"  height="40" rx="3" fill="#ff0033" opacity="0.12" filter="url(#softblur)"/>

  <!-- REAR BUMPER -->
  <rect x="26"  y="98" width="208" height="10" rx="3" fill="#b8b8c8"/>
  <rect x="28"  y="99" width="204" height="5"  rx="2" fill="#ccccdc" opacity="0.7"/>

  <!-- EXHAUST PIPES (2) -->
  <ellipse cx="80"  cy="109" rx="7"  ry="4"  fill="#6a6a7a"/>
  <ellipse cx="80"  cy="109" rx="5"  ry="3"  fill="#3a3a4a"/>
  <ellipse cx="98"  cy="109" rx="7"  ry="4"  fill="#6a6a7a"/>
  <ellipse cx="98"  cy="109" rx="5"  ry="3"  fill="#3a3a4a"/>

  <!-- REAR LEFT WHEEL (large, partial, pixel) -->
  <circle cx="75"  cy="106" r="40" fill="#141420"/>
  <circle cx="75"  cy="106" r="40" fill="#141420" stroke="#2a1a5a" stroke-width="3"/>
  <!-- Tyre tread (pixel blocks around rim) -->
  <circle cx="75"  cy="106" r="35" fill="none" stroke="#0c0a18" stroke-width="8"/>
  <!-- Rim -->
  <circle cx="75"  cy="106" r="24" fill="#1a1828" stroke="#5a3a8a" stroke-width="2"/>
  <!-- Rim spokes (pixel art — 5 spoke) -->
  <g stroke="#8a7a3a" stroke-width="2.5" opacity="0.9">
    <line x1="75" y1="82" x2="75" y2="95">
      <animateTransform attributeName="transform" type="rotate" values="0 75 106;360 75 106" dur="0.4s" repeatCount="indefinite"/>
    </line>
  </g>
  <g stroke="#aa9944" stroke-width="2" opacity="0.7">
    <line x1="75" y1="82" x2="75" y2="93">
      <animateTransform attributeName="transform" type="rotate" values="72 75 106;432 75 106" dur="0.4s" repeatCount="indefinite"/>
    </line>
    <line x1="75" y1="82" x2="75" y2="93">
      <animateTransform attributeName="transform" type="rotate" values="144 75 106;504 75 106" dur="0.4s" repeatCount="indefinite"/>
    </line>
    <line x1="75" y1="82" x2="75" y2="93">
      <animateTransform attributeName="transform" type="rotate" values="216 75 106;576 75 106" dur="0.4s" repeatCount="indefinite"/>
    </line>
    <line x1="75" y1="82" x2="75" y2="93">
      <animateTransform attributeName="transform" type="rotate" values="288 75 106;648 75 106" dur="0.4s" repeatCount="indefinite"/>
    </line>
  </g>
  <!-- Hub cap -->
  <circle cx="75"  cy="106" r="10" fill="#cc9933" opacity="0.9"/>
  <circle cx="75"  cy="106" r="5"  fill="#0c0a18"/>

  <!-- REAR RIGHT WHEEL -->
  <circle cx="185" cy="106" r="40" fill="#141420" stroke="#2a1a5a" stroke-width="3"/>
  <circle cx="185" cy="106" r="35" fill="none" stroke="#0c0a18" stroke-width="8"/>
  <circle cx="185" cy="106" r="24" fill="#1a1828" stroke="#5a3a8a" stroke-width="2"/>
  <g stroke="#aa9944" stroke-width="2.5" opacity="0.9">
    <line x1="185" y1="82" x2="185" y2="95">
      <animateTransform attributeName="transform" type="rotate" values="0 185 106;360 185 106" dur="0.38s" repeatCount="indefinite"/>
    </line>
    <line x1="185" y1="82" x2="185" y2="93">
      <animateTransform attributeName="transform" type="rotate" values="72 185 106;432 185 106" dur="0.38s" repeatCount="indefinite"/>
    </line>
    <line x1="185" y1="82" x2="185" y2="93">
      <animateTransform attributeName="transform" type="rotate" values="144 185 106;504 185 106" dur="0.38s" repeatCount="indefinite"/>
    </line>
    <line x1="185" y1="82" x2="185" y2="93">
      <animateTransform attributeName="transform" type="rotate" values="216 185 106;576 185 106" dur="0.38s" repeatCount="indefinite"/>
    </line>
    <line x1="185" y1="82" x2="185" y2="93">
      <animateTransform attributeName="transform" type="rotate" values="288 185 106;648 185 106" dur="0.38s" repeatCount="indefinite"/>
    </line>
  </g>
  <circle cx="185" cy="106" r="10" fill="#cc9933" opacity="0.9"/>
  <circle cx="185" cy="106" r="5"  fill="#0c0a18"/>

  <!-- Tyre smoke at wheels -->
  <ellipse cx="75"  cy="146" rx="30" ry="6" fill="#c8b8e0" opacity="0.2" filter="url(#softblur)">
    <animate attributeName="opacity" values="0.2;0.05;0.2" dur="0.9s" repeatCount="indefinite"/>
  </ellipse>
  <ellipse cx="185" cy="146" rx="30" ry="6" fill="#c8b8e0" opacity="0.2" filter="url(#softblur)">
    <animate attributeName="opacity" values="0.2;0.06;0.2" dur="1.1s" repeatCount="indefinite"/>
  </ellipse>

</g>

<!-- ═══════════════════════════════════════ -->
<!--  FLOATING ROTATING TECH ICONS           -->
<!-- ═══════════════════════════════════════ -->

<!-- Orbit ring (subtle ellipse) -->
<ellipse cx="530" cy="170" rx="160" ry="55" fill="none" stroke="#4a2a8a" stroke-width="1" stroke-dasharray="4 6" opacity="0.4">
  <animate attributeName="opacity" values="0.4;0.15;0.4" dur="3s" repeatCount="indefinite"/>
</ellipse>

<!-- ICON 1: C++ — top center, orbital float + spin -->
<g>
  <animateTransform attributeName="transform" type="translate"
    values="520,110; 520,100; 520,108; 520,110" dur="3.8s" repeatCount="indefinite"/>
  <g>
    <animateTransform attributeName="transform" type="rotate"
      values="0;360" dur="9s" repeatCount="indefinite" additive="sum"/>
    <rect x="-20" y="-20" width="40" height="40" rx="6" fill="#1a1440" stroke="#5a3a9a" stroke-width="1.5"/>
    <text x="0" y="6" font-family="monospace" font-size="14" font-weight="bold" fill="#cc9933" text-anchor="middle">C++</text>
  </g>
  <circle cx="0" cy="0" r="24" fill="#cc9933" opacity="0.07" filter="url(#softblur)"/>
</g>

<!-- ICON 2: AI — top right orbital -->
<g>
  <animateTransform attributeName="transform" type="translate"
    values="650,95; 650,87; 650,93; 650,95" dur="4.2s" repeatCount="indefinite"/>
  <g>
    <animateTransform attributeName="transform" type="rotate"
      values="360;0" dur="11s" repeatCount="indefinite" additive="sum"/>
    <rect x="-20" y="-20" width="40" height="40" rx="6" fill="#1a0a2a" stroke="#7a3aaa" stroke-width="1.5"/>
    <text x="0" y="7" font-family="monospace" font-size="14" font-weight="bold" fill="#cc66cc" text-anchor="middle">AI</text>
  </g>
  <circle cx="0" cy="0" r="24" fill="#cc44cc" opacity="0.07" filter="url(#softblur)"/>
</g>

<!-- ICON 3: Python — left mid orbital -->
<g>
  <animateTransform attributeName="transform" type="translate"
    values="400,155; 400,145; 400,153; 400,155" dur="3.0s" repeatCount="indefinite"/>
  <g>
    <animateTransform attributeName="transform" type="rotate"
      values="0;360" dur="8s" repeatCount="indefinite" additive="sum"/>
    <rect x="-20" y="-20" width="40" height="40" rx="6" fill="#1e1c4a" stroke="#4a3a9a" stroke-width="1.5"/>
    <!-- Python pixel logo -->
    <path d="M-6,-8 Q-6,-13 -1,-13 L1,-13 Q6,-13 6,-8 L6,-3 Q6,2 1,2 L-1,2 L-1,5" fill="none" stroke="#4a7acc" stroke-width="3.5" stroke-linecap="round"/>
    <path d="M1,2 L1,5 Q1,10 6,10 L6,13 Q6,15 1,15 L-1,15 Q-6,15 -6,11 L-6,8 Q-6,4 -1,4" fill="none" stroke="#ffcc44" stroke-width="3.5" stroke-linecap="round"/>
    <circle cx="-1" cy="-10" r="2" fill="#fff"/>
    <circle cx="1"  cy="13"  r="2" fill="#fff"/>
  </g>
  <circle cx="0" cy="0" r="24" fill="#4a7acc" opacity="0.08" filter="url(#softblur)"/>
</g>

<!-- ICON 4: GitHub — center orbital -->
<g>
  <animateTransform attributeName="transform" type="translate"
    values="530,175; 530,165; 530,173; 530,175" dur="5.0s" repeatCount="indefinite"/>
  <g>
    <animateTransform attributeName="transform" type="rotate"
      values="0;-360" dur="13s" repeatCount="indefinite" additive="sum"/>
    <rect x="-20" y="-20" width="40" height="40" rx="6" fill="#0e0c22" stroke="#3a3a5a" stroke-width="1.5"/>
    <!-- GitHub mark (simplified pixel cat) -->
    <circle cx="0" cy="-2" r="10" fill="#ffffff" opacity="0.9"/>
    <circle cx="0" cy="-2" r="10" fill="#0e0c22" opacity="0.0"/>
    <!-- octocat shape -->
    <ellipse cx="0" cy="-2" rx="8" ry="8" fill="#ffffff"/>
    <ellipse cx="0" cy="3"  rx="4" ry="5" fill="#0e0c22"/>
    <ellipse cx="0" cy="3"  rx="2" ry="3" fill="#ffffff"/>
    <circle  cx="-3" cy="-4" r="1.5" fill="#0e0c22"/>
    <circle  cx="3"  cy="-4" r="1.5" fill="#0e0c22"/>
  </g>
  <circle cx="0" cy="0" r="24" fill="#ffffff" opacity="0.05" filter="url(#softblur)"/>
</g>

<!-- ICON 5: &lt;/&gt; Code — right side -->
<g>
  <animateTransform attributeName="transform" type="translate"
    values="660,170; 660,160; 660,168; 660,170" dur="3.4s" repeatCount="indefinite"/>
  <g>
    <animateTransform attributeName="transform" type="rotate"
      values="0;360" dur="7s" repeatCount="indefinite" additive="sum"/>
    <rect x="-20" y="-20" width="40" height="40" rx="6" fill="#0a2a1a" stroke="#2a7a4a" stroke-width="1.5"/>
    <text x="0" y="6" font-family="monospace" font-size="11" font-weight="bold" fill="#44cc88" text-anchor="middle">&lt;/&gt;</text>
  </g>
  <circle cx="0" cy="0" r="24" fill="#44cc88" opacity="0.07" filter="url(#softblur)"/>
</g>

<!-- ICON 6: Database/SQL — lower right orbital -->
<g>
  <animateTransform attributeName="transform" type="translate"
    values="600,215; 600,205; 600,213; 600,215" dur="4.6s" repeatCount="indefinite"/>
  <g>
    <animateTransform attributeName="transform" type="rotate"
      values="360;0" dur="10s" repeatCount="indefinite" additive="sum"/>
    <rect x="-20" y="-20" width="40" height="40" rx="6" fill="#1a1040" stroke="#4a2a8a" stroke-width="1.5"/>
    <!-- Cylinder (DB) -->
    <ellipse cx="0" cy="-8" rx="10" ry="4" fill="#4a44cc" opacity="0.9"/>
    <rect x="-10" y="-8" width="20" height="14" fill="#3a34bc" opacity="0.8"/>
    <ellipse cx="0" cy="-8" rx="10" ry="4" fill="#6a64ee" opacity="0.7"/>
    <ellipse cx="0" cy="6"  rx="10" ry="4" fill="#4a44cc" opacity="0.9"/>
    <ellipse cx="0" cy="0"  rx="10" ry="3.5" fill="none" stroke="#6a64ee" stroke-width="1" opacity="0.6"/>
    <text x="0" y="18" font-family="monospace" font-size="5" fill="#6a64ee" text-anchor="middle">SQL</text>
  </g>
  <circle cx="0" cy="0" r="24" fill="#4a44cc" opacity="0.07" filter="url(#softblur)"/>
</g>

<!-- ICON 7: Coffee ☕ — floats alone, lazy bob -->
<g>
  <animateTransform attributeName="transform" type="translate"
    values="460,220; 460,208; 460,218; 460,220" dur="6.0s" repeatCount="indefinite"/>
  <text x="0" y="8" font-family="serif" font-size="26" text-anchor="middle">☕</text>
  <!-- steam -->
  <path d="M-4,-10 Q-2,-16 -4,-22" fill="none" stroke="#ffffff" stroke-width="1.2" opacity="0.5" stroke-linecap="round">
    <animate attributeName="opacity" values="0.5;0.1;0.5" dur="1.4s" repeatCount="indefinite"/>
  </path>
  <path d="M2,-10 Q4,-17 2,-24" fill="none" stroke="#ffffff" stroke-width="1.2" opacity="0.4" stroke-linecap="round">
    <animate attributeName="opacity" values="0.4;0.1;0.4" dur="1.8s" repeatCount="indefinite" begin="0.4s"/>
  </path>
</g>

<!-- ═══════════════════════════════════════ -->
<!--  TITLE: 17ZORAS D (Initial D style)    -->
<!-- ═══════════════════════════════════════ -->

<!-- Background dark panel for title -->
<rect x="0" y="45" width="340" height="90" rx="0" fill="#06041a" opacity="0.5"/>

<!-- 17ZORAS text — white bold italic -->
<text x="22" y="108" font-family="Arial Black, Impact, sans-serif" font-size="58" font-weight="900"
      font-style="italic" fill="#ffffff" filter="url(#textglow)">17ZORAS</text>
<text x="22" y="108" font-family="Arial Black, Impact, sans-serif" font-size="58" font-weight="900"
      font-style="italic" fill="none" stroke="#cccccc" stroke-width="1" opacity="0.4">17ZORAS</text>

<!-- D — red, Initial D logo style -->
<text x="270" y="108" font-family="Arial Black, Impact, sans-serif" font-size="72" font-weight="900"
      font-style="italic" fill="#cc0000" filter="url(#redshadow)">D</text>
<text x="270" y="108" font-family="Arial Black, Impact, sans-serif" font-size="72" font-weight="900"
      font-style="italic" fill="#ff2222" opacity="0.6">D</text>

<!-- Subtitle line -->
<text x="24" y="128" font-family="monospace" font-size="10.5" fill="#cccccc" font-weight="bold"
      letter-spacing="2">DRIFT ◆ CODE ◆ ML ◆ DSA ◆ REDLINE</text>

<!-- Japanese subtitle: 公道最速伝説 (Fastest on Public Roads Legend) -->
<text x="24" y="152" font-family="serif" font-size="14" fill="#8a5acc" font-weight="bold"
      filter="url(#textglow)">公道最速伝説</text>

<!-- ═══════════════════════════════════════ -->
<!--  LEFT PANEL: DRIVER PROFILE            -->
<!-- ═══════════════════════════════════════ -->
<rect x="10" y="172" width="220" height="170" rx="4" fill="url(#panel-bg)" stroke="#cc3333" stroke-width="1.2" opacity="0.95"/>
<rect x="10" y="172" width="220" height="4"   rx="2" fill="#cc3333" opacity="0.9"/>

<text x="20" y="192" font-family="monospace" font-size="10" fill="#cc3333" font-weight="bold" letter-spacing="1">DRIVER PROFILE</text>
<line x1="10" y1="196" x2="230" y2="196" stroke="#cc3333" stroke-width="0.8" opacity="0.5"/>

<!-- Profile rows -->
<g font-family="monospace" font-size="10" fill="#cccccc">
  <text x="20" y="215">👤  ZORAWAR SINGH</text>
  <text x="20" y="232">⚙  17ZORAS</text>
  <text x="20" y="249">🧠  ML ENGINEER</text>
  <text x="20" y="266">⚡  FULL-STACK DEV</text>
  <text x="20" y="283">⚔  DSA RACER (C++)</text>
  <text x="20" y="300">🏆  BUILDING IMPACT</text>
</g>

<!-- Separator -->
<line x1="10" y1="308" x2="230" y2="308" stroke="#cc3333" stroke-width="0.5" opacity="0.4"/>

<!-- Mission -->
<text x="20" y="325" font-family="monospace" font-size="9" fill="#cc3333" font-weight="bold" letter-spacing="1">CURRENT MISSION</text>
<g font-family="monospace" font-size="9" fill="#b0a0c0">
  <text x="20" y="340"><tspan fill="#cc3333">⬡ </tspan>TURN IDEAS INTO IMPACT</text>
  <text x="20" y="354"><tspan fill="#cc3333">⬡ </tspan>BUILD AI PRODUCTS</text>
  <text x="20" y="368"><tspan fill="#cc3333">⬡ </tspan>RACE AGAINST MY BEST</text>
</g>

<!-- ═══════════════════════════════════════ -->
<!--  RIGHT PANELS: TOUGE STATUS + GARAGE   -->
<!-- ═══════════════════════════════════════ -->

<!-- TOUGE STATUS panel -->
<rect x="630" y="172" width="220" height="150" rx="4" fill="url(#panel-bg)" stroke="#cc9933" stroke-width="1.2" opacity="0.95"/>
<rect x="630" y="172" width="220" height="4"   rx="2" fill="#cc9933" opacity="0.9"/>
<text x="640" y="193" font-family="monospace" font-size="10" fill="#cc9933" font-weight="bold" letter-spacing="1">TOUGE STATUS</text>
<line x1="630" y1="197" x2="850" y2="197" stroke="#cc9933" stroke-width="0.8" opacity="0.5"/>

<!-- Status bars -->
<g font-family="monospace" font-size="9" fill="#b0a0c0">
  <!-- FOCUS -->
  <text x="640" y="215">FOCUS</text>
  <rect x="700" y="206" width="100" height="8" rx="2" fill="#1a1430" opacity="0.8"/>
  <rect x="700" y="206" width="100" height="8" rx="2" fill="url(#bar-amber)" opacity="0.9"/>
  <text x="806" y="215" fill="#cc9933" font-size="8">100%</text>

  <!-- MOTIVATION -->
  <text x="640" y="233">MOTIVATION</text>
  <rect x="714" y="224" width="86" height="8" rx="2" fill="#1a1430" opacity="0.8"/>
  <rect x="714" y="224" width="78" height="8" rx="2" fill="url(#bar-purple)" opacity="0.9"/>
  <text x="806" y="233" fill="#8a4acc" font-size="8"> 90%</text>

  <!-- CODE -->
  <text x="640" y="251">CODE</text>
  <rect x="700" y="242" width="100" height="8" rx="2" fill="#1a1430" opacity="0.8"/>
  <rect x="700" y="242" width="95" height="8" rx="2" fill="url(#bar-amber)" opacity="0.9"/>
  <text x="806" y="251" fill="#cc9933" font-size="8"> 95%</text>

  <!-- CAFFEINE -->
  <text x="640" y="269">CAFFEINE</text>
  <rect x="710" y="260" width="90" height="8" rx="2" fill="#1a1430" opacity="0.8"/>
  <rect x="710" y="260" width="90" height="8" rx="2" fill="url(#bar-red)" opacity="0.9">
    <animate attributeName="width" values="90;60;90" dur="0.5s" repeatCount="indefinite"/>
  </rect>
  <text x="806" y="269" fill="#ff4400" font-size="8">110%</text>
</g>

<!-- Track sub-panel -->
<line x1="630" y1="278" x2="850" y2="278" stroke="#cc9933" stroke-width="0.5" opacity="0.4"/>
<text x="640" y="294" font-family="monospace" font-size="9" fill="#cc9933" letter-spacing="1">TRACK</text>
<text x="640" y="310" font-family="monospace" font-size="11" fill="#ffffff" font-weight="bold">MT. AKINA</text>
<text x="640" y="324" font-family="monospace" font-size="9" fill="#cc9933">DOWNHILL</text>

<!-- GARAGE panel -->
<rect x="630" y="332" width="220" height="80" rx="4" fill="url(#panel-bg)" stroke="#5a3a8a" stroke-width="1.2" opacity="0.95"/>
<rect x="630" y="332" width="220" height="4"  rx="2" fill="#5a3a8a" opacity="0.9"/>
<text x="640" y="352" font-family="monospace" font-size="9" fill="#9a6aaa" font-weight="bold" letter-spacing="1">GARAGE</text>
<line x1="630" y1="356" x2="850" y2="356" stroke="#5a3a8a" stroke-width="0.8" opacity="0.5"/>
<!-- Mini car silhouette (top-down pixel) -->
<g transform="translate(645,368)" fill="#9a9ab0">
  <rect x="0"  y="0" width="48" height="28" rx="5"/>
  <rect x="4"  y="3" width="40" height="6"  rx="2" fill="#1a1830"/>
  <circle cx="8"  cy="26" r="6" fill="#0c0a20"/>
  <circle cx="40" cy="26" r="6" fill="#0c0a20"/>
  <circle cx="8"  cy="2"  r="6" fill="#0c0a20"/>
  <circle cx="40" cy="2"  r="6" fill="#0c0a20"/>
</g>
<text x="702" y="374" font-family="monospace" font-size="9"  fill="#cccccc" font-weight="bold">AE86 TRUENO</text>
<text x="702" y="387" font-family="monospace" font-size="7.5" fill="#8a7aaa">LIGHT. SHARP. BUILT</text>
<text x="702" y="398" font-family="monospace" font-size="7.5" fill="#8a7aaa">TO OUTRUN.</text>

<!-- Kanji side stamp -->
<text x="824" y="398" font-family="serif" font-size="18" fill="#5a3a8a" opacity="0.6" font-weight="bold">藤原</text>

<!-- ═══════════════════════════════════════ -->
<!--  CENTRE KANJI TEXT (floating)          -->
<!-- ═══════════════════════════════════════ -->
<text x="430" y="398" font-family="serif" font-size="18" fill="#c8a8e8" text-anchor="middle"
      font-weight="bold" filter="url(#textglow)" opacity="0.9">ドリフトは人生だ</text>
<text x="430" y="416" font-family="monospace" font-size="10" fill="#8a6aaa" text-anchor="middle"
      letter-spacing="2">DRIFT IS LIFE</text>

<!-- ═══════════════════════════════════════ -->
<!--  BOTTOM HUD BAR                         -->
<!-- ═══════════════════════════════════════ -->
<rect x="0" y="430" width="860" height="50" fill="#06041a" opacity="0.96"/>
<line x1="0" y1="430" x2="860" y2="430" stroke="#cc9933" stroke-width="1.5" opacity="0.8"/>

<!-- Speedometer (pixel art) -->
<g transform="translate(32,455)">
  <!-- dial ring -->
  <circle cx="0" cy="0" r="20" fill="#0e0c22" stroke="#4a3a6a" stroke-width="1.5"/>
  <circle cx="0" cy="0" r="20" fill="none" stroke="#cc9933" stroke-width="3"
    stroke-dasharray="90 36" stroke-dashoffset="20" opacity="0.8"/>
  <!-- Needle -->
  <line x1="0" y1="0" x2="14" y2="-8" stroke="#cc9933" stroke-width="2" stroke-linecap="round">
    <animateTransform attributeName="transform" type="rotate" values="30;20;30" dur="2s" repeatCount="indefinite"/>
  </line>
  <circle cx="0" cy="0" r="3" fill="#cc9933"/>
  <!-- x1000r/min label -->
  <text x="0" y="28" font-family="monospace" font-size="4.5" fill="#8a7aaa" text-anchor="middle">x1000r/min</text>
  <!-- Scale marks (mini pixel) -->
  <g stroke="#6a5a8a" stroke-width="1" opacity="0.7">
    <line x1="-20" y1="0" x2="-16" y2="0"/>
    <line x1="20"  y1="0" x2="16"  y2="0"/>
    <line x1="0"   y1="-20" x2="0" y2="-16"/>
  </g>
</g>

<!-- SPEED readout -->
<g font-family="monospace">
  <text x="62" y="445" font-size="9"  fill="#cc9933" font-weight="bold">SPEED</text>
  <text x="62" y="466" font-size="22" fill="#ff9900" font-weight="900">135</text>
  <text x="108" y="466" font-size="9"  fill="#cc9933">KM/H</text>
</g>

<!-- Separator -->
<line x1="145" y1="438" x2="145" y2="474" stroke="#2a1a4a" stroke-width="1" opacity="0.8"/>

<!-- GEAR -->
<g font-family="monospace">
  <text x="158" y="445" font-size="9"  fill="#cc9933" font-weight="bold">GEAR</text>
  <text x="158" y="467" font-size="24" fill="#cc9933" font-weight="900">4</text>
  <text x="182" y="467" font-size="9"  fill="#8a7aaa">MT</text>
</g>

<line x1="220" y1="438" x2="220" y2="474" stroke="#2a1a4a" stroke-width="1" opacity="0.8"/>

<!-- BOOST bars -->
<text x="232" y="445" font-family="monospace" font-size="9" fill="#cc9933" font-weight="bold">BOOST</text>
<g>
  <rect x="232" y="452" width="12" height="14" rx="1" fill="#5a3a9a"/>
  <rect x="248" y="452" width="12" height="14" rx="1" fill="#5a3a9a"/>
  <rect x="264" y="452" width="12" height="14" rx="1" fill="#5a3a9a"/>
  <rect x="280" y="455" width="12" height="11" rx="1" fill="#3a2a6a"/>
  <rect x="296" y="458" width="12" height="8"  rx="1" fill="#2a1a4a"/>
  <animate attributeName="opacity" values="1;0.6;1" dur="0.8s" repeatCount="indefinite"/>
</g>
<text x="315" y="467" font-family="monospace" font-size="14" fill="#cc9933" font-weight="900">1.3</text>
<text x="338" y="467" font-family="monospace" font-size="9"  fill="#8a7aaa">BAR</text>

<line x1="370" y1="438" x2="370" y2="474" stroke="#2a1a4a" stroke-width="1" opacity="0.8"/>

<!-- Cycling status text -->
<g font-family="monospace" font-size="9" fill="#8a6aaa" text-anchor="middle">
  <text x="490" y="445" opacity="1">
    <animate attributeName="opacity" values="1;1;0;0;0;0;0;0;1;1" dur="6s" repeatCount="indefinite"/>
    SECTOR TIME — 2:14.38
  </text>
  <text x="490" y="460" opacity="1">
    <animate attributeName="opacity" values="1;1;0;0;0;0;0;0;1;1" dur="6s" repeatCount="indefinite"/>
    <tspan fill="#cc9933">▶</tspan> EUROBEAT INTENSIFIES
  </text>
  <text x="490" y="445" fill="#cc9933" opacity="0">
    <animate attributeName="opacity" values="0;0;1;1;0;0;0;0;0;0" dur="6s" repeatCount="indefinite"/>
    CORNER ENTRY PERFECT
  </text>
  <text x="490" y="460" opacity="0">
    <animate attributeName="opacity" values="0;0;1;1;0;0;0;0;0;0" dur="6s" repeatCount="indefinite"/>
    <tspan fill="#cc3333">▶</tspan> INERTIA DRIFT LOCKED
  </text>
  <text x="490" y="445" fill="#44cc88" opacity="0">
    <animate attributeName="opacity" values="0;0;0;0;1;1;0;0;0;0" dur="6s" repeatCount="indefinite"/>
    DOWNHILL — MT. AKINA
  </text>
  <text x="490" y="460" opacity="0">
    <animate attributeName="opacity" values="0;0;0;0;1;1;0;0;0;0" dur="6s" repeatCount="indefinite"/>
    <tspan fill="#cc9933">▶</tspan> STAY FOCUSED. KEEP DRIFTING.
  </text>
</g>

<!-- Right side: Initial D kanji logo style -->
<text x="620" y="445" font-family="monospace" font-size="8" fill="#8a7aaa" text-anchor="start">STAY FOCUSED. KEEP DRIFTING.</text>
<!-- 頭文字D logo -->
<text x="636" y="472" font-family="serif" font-size="11" fill="#8a6aaa" opacity="0.7" font-weight="bold">頭文字</text>
<text x="688" y="474" font-family="Arial Black, Impact, sans-serif" font-size="18" fill="#cc0000"
      font-weight="900" font-style="italic" filter="url(#redshadow)">D</text>

<!-- ═══════════════════════════════════════ -->
<!--  HUD CORNER BRACKETS                   -->
<!-- ═══════════════════════════════════════ -->
<g stroke="#4a2a7a" stroke-width="1.4" fill="none" opacity="0.7">
  <polyline points="4,4 4,28 28,28"/>
  <polyline points="856,4 856,28 832,28"/>
  <polyline points="4,426 4,402 28,402"/>
  <polyline points="856,426 856,402 832,402"/>
</g>

<!-- ═══════════════════════════════════════ -->
<!--  SCANLINES                              -->
<!-- ═══════════════════════════════════════ -->
<g fill="#5030aa" opacity="0.018">
  <rect x="0" y="0"   width="860" height="1.5"/>
  <rect x="0" y="24"  width="860" height="1.5"/>
  <rect x="0" y="48"  width="860" height="1.5"/>
  <rect x="0" y="72"  width="860" height="1.5"/>
  <rect x="0" y="96"  width="860" height="1.5"/>
  <rect x="0" y="120" width="860" height="1.5"/>
  <rect x="0" y="144" width="860" height="1.5"/>
  <rect x="0" y="168" width="860" height="1.5"/>
  <rect x="0" y="192" width="860" height="1.5"/>
  <rect x="0" y="216" width="860" height="1.5"/>
  <rect x="0" y="240" width="860" height="1.5"/>
  <rect x="0" y="264" width="860" height="1.5"/>
  <rect x="0" y="288" width="860" height="1.5"/>
  <rect x="0" y="312" width="860" height="1.5"/>
  <rect x="0" y="336" width="860" height="1.5"/>
  <rect x="0" y="360" width="860" height="1.5"/>
  <rect x="0" y="384" width="860" height="1.5"/>
  <rect x="0" y="408" width="860" height="1.5"/>
</g>

</g>
</svg>
